<svg width="30" height="30" viewBox="0 0 30 30" fill="none" xmlns="http://www.w3.org/2000/svg">
<rect width="30" height="30" rx="7" fill="#7E36F4"/>
<path d="M13.3529 20C13.1529 20 12.9853 19.9362 12.8501 19.8085C12.7147 19.6811 12.6471 19.523 12.6471 19.3342C12.6471 19.1457 12.7147 18.9876 12.8501 18.8601C12.9853 18.7328 13.1529 18.6691 13.3529 18.6691H22.2941C22.4941 18.6691 22.6617 18.7329 22.7969 18.8604C22.9323 18.988 23 19.1462 23 19.3349C23 19.5235 22.9323 19.6815 22.7969 19.809C22.6617 19.9363 22.4941 20 22.2941 20H13.3529ZM13.3529 15.6655C13.1529 15.6655 12.9853 15.6017 12.8501 15.4741C12.7147 15.3465 12.6471 15.1883 12.6471 14.9998C12.6471 14.8111 12.7147 14.653 12.8501 14.5257C12.9853 14.3982 13.1529 14.3345 13.3529 14.3345H22.2941C22.4941 14.3345 22.6617 14.3983 22.7969 14.5259C22.9323 14.6535 23 14.8117 23 15.0002C23 15.1889 22.9323 15.347 22.7969 15.4743C22.6617 15.6018 22.4941 15.6655 22.2941 15.6655H13.3529ZM7.70588 11.3309C7.50588 11.3309 7.33827 11.2671 7.20306 11.1396C7.06769 11.012 7 10.8538 7 10.6651C7 10.4765 7.06769 10.3185 7.20306 10.191C7.33827 10.0637 7.50588 10 7.70588 10H22.2941C22.4941 10 22.6617 10.0638 22.7969 10.1915C22.9323 10.3189 23 10.477 23 10.6658C23 10.8543 22.9323 11.0124 22.7969 11.1399C22.6617 11.2672 22.4941 11.3309 22.2941 11.3309H7.70588Z" fill="white"/>
</svg>
